#!OML:ASF X:\für Bonn\!DataBase\2005_08_10_Bjorn_Final\c3d\bjorn.ASF
:FULLY-SPECIFIED
:DEGREES
388
root 1.87709 18.8817 8.74608 -180.932 5.15576 178.813
lowerback -1.3114 0.557619 3.69411
upperback 11.2252 1.72369 -0.345682
thorax 12.9879 1.73831 -2.10831
lowerneck 0.925127 -1.78547 5.14588
upperneck 26.5169 2.68315 -8.97465
head 8.14378 2.17356 -3.58533
rclavicle 2.42517e-014 5.96354e-015
rhumerus -378.749 -30.5493 279.066
rradius 32.7948
rwrist -3.0625
rhand -16.5843 10.2125
rfingers 7.12502
rthumb 9.63648 -19.5471
lclavicle 2.42517e-014 5.96354e-015
lhumerus -23.3557 -13.9735 77.9739
lradius 37.2615
lwrist 1.3606
lhand -14.3985 -2.23372
lfingers 7.12502
lthumb 11.7448 27.417
rfemur -19.857 -5.415 15.2595
rtibia 38.4986
rfoot -14.5843 13.833
rtoes 0.935999
lfemur 0.843905 4.51277 -15.7362
ltibia 36.7897
lfoot -16.1659 0.874716
ltoes -24.8129
389
root 1.85218 18.8734 8.81398 -180.933 4.9052 178.827
lowerback -1.3319 0.58995 3.62315
upperback 11.1778 1.7671 -0.363758
thorax 12.9455 1.74837 -2.08433
lowerneck 1.01145 2.17464 5.09722
upperneck 27.1248 1.13929 -7.51985
head 8.29161 -0.754201 -3.52309
rclavicle 8.15017e-015 -2.74323e-014
rhumerus -378.482 -30.2695 278.372
rradius 33.8478
rwrist -5.02092
rhand -17.2357 9.94584
rfingers 7.12502
rthumb 9.00793 -19.8418
lclavicle 8.15017e-015 -2.74323e-014
lhumerus -22.7184 -13.9086 77.9979
lradius 38.7832
lwrist 5.07108
lhand -14.1543 -1.76037
lfingers 7.12502
lthumb 11.9803 27.8768
rfemur -20.1229 -5.57372 15.2096
rtibia 38.6125
rfoot -14.4435 13.7263
rtoes 0.706974
lfemur 1.41356 4.69575 -15.7579
ltibia 35.5703
lfoot -16.5674 0.641041
ltoes -24.0058
390
root 1.82726 18.8645 8.88194 -180.958 4.64661 178.86
lowerback -1.32737 0.606839 3.55117
upperback 11.1518 1.79412 -0.362928
thorax 12.9106 1.752 -2.04087
lowerneck 1.0401 2.10526 4.96975
upperneck 27.0893 1.03525 -7.41998
head 8.26583 -0.803895 -3.47103
rclavicle -1.55052e-014 1.78906e-014
rhumerus -378.194 -29.8068 277.715
rradius 34.9113
rwrist -6.90682
rhand -17.8697 9.66822
rfingers 7.12502
rthumb 8.39606 -20.1449
lclavicle -1.55052e-014 1.78906e-014
lhumerus -22.1046 -14.0052 78.0483
lradius 40.3591
lwrist 8.5624
lhand -14.0255 -1.35105
lfingers 7.12502
lthumb 12.1045 28.2788
rfemur -20.3741 -5.69511 15.1733
rtibia 38.759
rfoot -14.3407 13.6063
rtoes 0.592684
lfemur 1.93573 4.88829 -15.7533
ltibia 34.3843
lfoot -17.0666 0.46822
ltoes -23.7234
391
root 1.80202 18.8539 8.95189 -181.019 4.38675 178.875
lowerback -1.26091 0.620342 3.4648
upperback 11.1278 1.8246 -0.379062
thorax 12.8397 1.7579 -2.00903
lowerneck 1.07567 2.03463 4.83167
upperneck 27.0529 0.918597 -7.26644
head 8.23811 -0.855521 -3.39938
rclavicle 2.44505e-014 -3.97569e-015
rhumerus -377.931 -29.2652 277.076
rradius 35.9687
rwrist -8.65155
rhand -18.4316 9.37944
rfingers 7.12502
rthumb 7.85378 -20.4547
lclavicle 2.44505e-014 -3.97569e-015
lhumerus -21.5109 -14.236 78.0756
lradius 41.9217
lwrist 11.6994
lhand -14.0142 -1.06819
lfingers 7.12502
lthumb 12.1155 28.561
rfemur -20.6024 -5.786 15.1161
rtibia 38.9206
rfoot -14.243 13.4224
rtoes 0.446208
lfemur 2.42629 5.07204 -15.765
ltibia 33.2527
lfoot -17.5767 0.270288
ltoes -23.1472
392
root 1.77638 18.8429 9.02221 -181.087 4.10838 178.92
lowerback -1.1849 0.627298 3.40165
upperback 11.1204 1.84616 -0.369737
thorax 12.7816 1.76242 -1.96299
lowerneck 1.07991 1.96488 4.63677
upperneck 27.0087 0.811255 -7.11318
head 8.21379 -0.907089 -3.31714
rclavicle -1.03368e-014 -3.97569e-015
rhumerus -377.627 -28.7366 276.502
rradius 36.9677
rwrist -10.2095
rhand -18.8922 9.09402
rfingers 7.12502
rthumb 7.40922 -20.7562
lclavicle -1.03368e-014 -3.97569e-015
lhumerus -20.8873 -14.5699 78.1333
lradius 43.4131
lwrist 14.3631
lhand -14.1147 -0.945291
lfingers 7.12502
lthumb 12.0185 28.6896
rfemur -20.8201 -5.85127 15.0851
rtibia 39.0886
rfoot -14.1533 13.2304
rtoes 0.338549
lfemur 2.86141 5.26026 -15.7296
ltibia 32.1912
lfoot -18.072 0.0344992
ltoes -22.5575
393
root 1.75113 18.8297 9.09334 -181.181 3.8377 178.952
lowerback -1.06951 0.634117 3.3068
upperback 11.1168 1.87365 -0.36097
thorax 12.7027 1.76745 -1.90014
lowerneck 1.10605 1.89778 4.45243
upperneck 26.9513 0.707342 -6.95787
head 8.18171 -0.955212 -3.23532
rclavicle -4.39314e-014 6.36111e-015
rhumerus -377.36 -28.1382 275.981
rradius 37.9476
rwrist -11.6291
rhand -19.2399 8.87961
rfingers 7.12502
rthumb 7.07359 -20.9822
lclavicle -4.39314e-014 6.36111e-015
lhumerus -20.2812 -14.9844 78.1724
lradius 44.8442
lwrist 16.4963
lhand -14.2944 -0.928693
lfingers 7.12502
lthumb 11.8452 28.7163
rfemur -21.0129 -5.88543 15.0361
rtibia 39.2502
rfoot -14.0444 13.0009
rtoes 0.411305
lfemur 3.26565 5.44683 -15.7133
ltibia 31.2213
lfoot -18.5238 -0.132181
ltoes -22.0694
394
root 1.72486 18.8169 9.16527 -181.281 3.55985 178.999
lowerback -0.945373 0.630155 3.24317
upperback 11.1254 1.88871 -0.365332
thorax 12.6339 1.77239 -1.87026
lowerneck 1.14897 1.83193 4.26974
upperneck 26.8703 0.606539 -6.79735
head 8.13916 -0.999815 -3.1509
rclavicle -9.0447e-015 2.78299e-015
rhumerus -377.098 -27.6795 275.523
rradius 38.8782
rwrist -12.4279
rhand -19.2425 8.76712
rfingers 7.12502
rthumb 7.07106 -21.0948
lclavicle -9.0447e-015 2.78299e-015
lhumerus -19.6302 -15.4544 78.1448
lradius 46.1743
lwrist 18.152
lhand -14.447 -1.0291
lfingers 7.12502
lthumb 11.6981 28.6243
rfemur -21.1875 -5.92499 14.996
rtibia 39.3927
rfoot -13.9361 12.7405
rtoes 0.436658
lfemur 3.61989 5.64652 -15.6769
ltibia 30.358
lfoot -18.7859 -0.24095
ltoes -22.1084
